# xmcd CD database file
#
# Track frame offsets:
#	150
#	15672
#	32930
#	52330
#	67807
#	90367
#	109275
#	123367
#	142637
#	160955
#	180932
#	201605
#	221492
#
# Disc length: 3190 seconds
#
# Revision: 0
# Processed by: cddbd v1.5.2PL0 Copyright (c) Steve Scherf et al.
# Submitted via: CDex 1.70beta2
#
DISCID=b20c740d
DTITLE=Edwin Holt - Second Time Around
DYEAR=2005
DGENRE=Jazz
TTITLE0=I Don't Think I'm Going to Make it
TTITLE1=Second Time around
TTITLE2=Red Clay Back Road Mamma
TTITLE3=You're in For a Big Sirprise
TTITLE4=Back Line
TTITLE5=Somebody's Gettin' it
TTITLE6=Steal Away
TTITLE7=Jack About Nothin'
TTITLE8=I Want to Walk You Home
TTITLE9=Down to the Bone
TTITLE10=The Right Reverend of the Blues
TTITLE11=Higher Ground
TTITLE12=One More River to Cross
EXTD=YEAR: 2005
EXTT0=
EXTT1=
EXTT2=
EXTT3=
EXTT4=
EXTT5=
EXTT6=
EXTT7=
EXTT8=
EXTT9=
EXTT10=
EXTT11=
EXTT12=
PLAYORDER=
